<?xml version="1.0" encoding="UTF-8"?>
<svg width="320px" height="320px" viewBox="0 0 320 320" version="1.1" xmlns="http://www.w3.org/2000/svg" xmlns:xlink="http://www.w3.org/1999/xlink">
    <title>Artboard</title>
    <desc>Created with Sketch.</desc>
    <g id="Artboard" stroke="none" stroke-width="1" fill="none" fill-rule="evenodd">
        <g id="Group-13" transform="translate(2.000000, 2.000000)">
            <g id="Group-4" transform="translate(10.000000, 11.000000)">
                <path d="M294.093715,146.835316 C294.093715,65.869019 228.463684,0.22778481 147.491785,0.22778481 C66.5310886,0.22778481 0.88985443,65.869019 0.88985443,146.835316 C0.88985443,227.807215 66.5310886,293.431646 147.491785,293.431646 C228.463684,293.431646 294.093715,227.807215 294.093715,146.835316" id="Fill-1" fill="#F8D367"></path>
                <path d="M294.093715,146.835316 C294.093715,65.869019 228.463684,0.22778481 147.491785,0.22778481 C66.5310886,0.22778481 0.88985443,65.869019 0.88985443,146.835316 C0.88985443,227.807215 66.5310886,293.431646 147.491785,293.431646 C228.463684,293.431646 294.093715,227.807215 294.093715,146.835316" id="Stroke-3" stroke="#025946" stroke-width="0.856"></path>
            </g>
            <g id="Group-8" transform="translate(12.000000, 11.000000)">
                <path d="M260.783624,241.09222 C277.176694,221.012608 288.230445,196.494658 292.183146,169.648583 L209.781095,231.528283 C208.681878,225.523583 206.737254,219.82992 204.105853,214.53297 L290.744273,117.636408 C284.525955,88.125095 269.422458,61.9290325 248.417904,41.81217 L184.204248,191.015183 C177.715324,186.29747 170.319407,182.775483 162.315095,180.72487 L190.594261,7.4732575 C176.58998,3.0740325 161.693636,0.6863075 146.239286,0.6863075 C130.777471,0.6863075 115.881127,3.07962 101.878713,7.4732575 L130.161611,180.73232 C122.164764,182.779208 114.763248,186.29747 108.272458,191.011458 L44.0662669,41.80472 C23.0542478,61.9290325 7.9526172,88.1195075 1.73243248,117.636408 L88.3727191,214.53297 C85.7375854,219.82992 83.7966936,225.523583 82.6974771,231.528283 L0.293559873,169.648583 C4.24812675,196.494658 15.2981459,221.012608 31.6968146,241.09222 L83.6865854,258.404158 C85.2001076,263.76257 87.5011841,268.556645 90.5077,272.78452 L62.6167127,269.553083 C74.4804134,277.690345 87.5758338,284.181158 101.602509,288.612045 L107.281483,287.410733 C110.605261,289.250883 114.179114,290.79117 117.967585,292.052083 L116.855305,292.558683 C118.674891,292.92187 120.541133,293.11557 122.371917,293.40612 C129.760369,295.376645 137.800139,296.391708 146.239286,296.391708 C154.678432,296.391708 162.718203,295.376645 170.104789,293.40612 C171.939305,293.11557 173.803681,292.92187 175.615802,292.558683 L174.50912,292.052083 C178.299458,290.79117 181.871445,289.250883 185.195222,287.410733 L190.870464,288.612045 C204.900872,284.181158 218.005624,277.697795 229.865592,269.553083 L201.969006,272.78452 C204.977388,268.556645 207.276598,263.76257 208.791987,258.404158 L260.783624,241.09222" id="Fill-5" fill="#C51E24"></path>
                <path d="M260.783624,241.09222 C277.176694,221.012608 288.230445,196.494658 292.183146,169.648583 L209.781095,231.528283 C208.681878,225.523583 206.737254,219.82992 204.105853,214.53297 L290.744273,117.636408 C284.525955,88.125095 269.422458,61.9290325 248.417904,41.81217 L184.204248,191.015183 C177.715324,186.29747 170.319407,182.775483 162.315095,180.72487 L190.594261,7.4732575 C176.58998,3.0740325 161.693636,0.6863075 146.239286,0.6863075 C130.777471,0.6863075 115.881127,3.07962 101.878713,7.4732575 L130.161611,180.73232 C122.164764,182.779208 114.763248,186.29747 108.272458,191.011458 L44.0662669,41.80472 C23.0542478,61.9290325 7.9526172,88.1195075 1.73243248,117.636408 L88.3727191,214.53297 C85.7375854,219.82992 83.7966936,225.523583 82.6974771,231.528283 L0.293559873,169.648583 C4.24812675,196.494658 15.2981459,221.012608 31.6968146,241.09222 L83.6865854,258.404158 C85.2001076,263.76257 87.5011841,268.556645 90.5077,272.78452 L62.6167127,269.553083 C74.4804134,277.690345 87.5758338,284.181158 101.602509,288.612045 L107.281483,287.410733 C110.605261,289.250883 114.179114,290.79117 117.967585,292.052083 L116.855305,292.558683 C118.674891,292.92187 120.541133,293.11557 122.371917,293.40612 C129.760369,295.376645 137.800139,296.391708 146.239286,296.391708 C154.678432,296.391708 162.718203,295.376645 170.104789,293.40612 C171.939305,293.11557 173.803681,292.92187 175.615802,292.558683 L174.50912,292.052083 C178.299458,290.79117 181.871445,289.250883 185.195222,287.410733 L190.870464,288.612045 C204.900872,284.181158 218.005624,277.697795 229.865592,269.553083 L201.969006,272.78452 C204.977388,268.556645 207.276598,263.76257 208.791987,258.404158 L260.783624,241.09222" id="Stroke-7" stroke="#025946" stroke-width="0.856"></path>
            </g>
            <path d="M245.928102,274.788448 C245.957961,266.183406 245.978489,254.306916 246.0662,250.111701 C246.31067,238.744684 246.573803,229.342774 246.756689,226.076926 C251.149695,227.881541 259.592329,229.995944 264.2522,227.972984 C259.435569,224.901221 254.228905,219.330617 252.758349,214.523289 C259.060466,217.089313 274.038489,213.429697 276.212598,208.818319 L274.157925,208.075572 C271.660966,207.080888 269.481259,205.750288 267.549754,204.171484 C258.676031,196.831724 255.66587,183.913896 255.550166,172.800682 C259.351591,174.446669 268.596686,177.527763 276.059571,171.746279 C270.169882,168.235959 265.511877,163.381976 261.947458,157.802042 C257.438748,150.751542 254.654396,142.573859 253.346198,134.536141 C257.595508,137.542587 264.170088,137.270122 269.164007,134.235683 C260.682183,128.971136 250.864169,121.164826 249.240585,110.665591 C253.435775,112.761333 256.712801,113.216685 259.941306,111.10788 C251.500539,105.7127 245.997151,97.5406148 242.666005,88.6612408 C241.544426,85.6902522 240.672917,82.6427495 240.012286,79.5933806 C240.012286,79.5933806 234.833615,97.5275515 220.519954,111.262775 C222.82283,113.056192 230.769058,111.326226 231.993277,111.04443 L232.157502,111.003373 C231.04712,115.648342 228.647202,119.974191 225.739682,124.130216 C221.790828,129.790397 216.880888,135.109064 212.905908,140.373611 C214.753434,140.450125 216.494587,140.330688 218.116304,140.099279 C225.881512,139.056074 230.895959,135.487902 230.895959,136.723326 C227.954846,148.439322 220.758826,163.245744 206.894917,172.651386 C206.894917,172.651386 221.606075,173.616211 226.245418,170.098426 C223.571171,185.153052 213.445236,199.575036 201.333677,207.172332 C205.041792,209.340855 210.802714,210.430715 215.552162,209.10758 C217.384758,208.599974 220.310941,208.144622 221.690054,207.321628 C220.189639,211.524308 214.753434,214.144451 211.18155,215.693396 C218.493274,218.007482 222.501846,215.284698 223.748459,214.683782 C222.727654,220.082696 220.137386,222.954776 213.491891,226.683441 C213.491891,226.683441 224.474406,229.598443 232.245212,222.484493 L232.54007,222.924916 L232.532605,224.130481 L232.284402,253.663078 L232.24148,279.366234 C211.913096,279.030318 170.584499,278.673874 86.5687222,278.627219 L86.5388632,260.569879 L86.6191093,231.916262 L86.6191093,224.137946 C86.6191093,224.137946 98.0980308,231.292952 107.074394,227.976717 C102.797092,227.04735 99.4360875,223.785234 95.9089924,220.672414 L95.9089924,220.213329 C99.8709093,221.142697 105.107432,222.290409 109.970718,222.129916 C114.886257,221.969423 119.441621,220.511921 122.867942,218.048539 C120.10785,216.327903 114.671645,214.377726 112.518064,211.884484 C118.704477,212.489132 123.332623,211.046561 125.92849,208.247263 C111.930215,204.740675 99.4360875,191.003585 96.8252907,178.56537 C108.983505,182.950937 114.748159,178.423539 114.748159,178.423539 C109.87181,175.486142 95.7596974,162.958349 92.2251376,146.569391 C95.3939246,148.164991 99.9156978,149.529182 104.390816,148.976787 C106.410031,148.72485 108.427381,148.079146 110.301033,146.881046 C105.101834,142.368577 94.8583287,134.302866 89.0152945,113.003938 C93.3933712,114.620067 95.7596974,114.403588 98.3630295,112.378762 C86.3391811,104.770269 77.8274983,80.3809165 77.8274983,80.3809165 C76.860813,83.8856379 75.9837047,87.228 74.9181114,90.4359959 C72.1206958,98.8712146 67.9441674,106.255763 56.6854561,112.541121 C63.9729197,117.893379 66.8057928,116.129822 69.7095811,115.340419 C66.628505,130.130045 49.3401407,143.609599 49.3401407,143.609599 C54.5468048,145.473932 61.7484237,145.016713 66.4922733,142.840726 C65.0665058,150.647035 62.7001796,159.466691 57.8163659,166.002119 C54.826733,170.008848 50.892809,173.157126 45.6637506,174.702338 C48.9687693,181.164985 56.5436258,181.984246 60.3693109,179.67016 L60.6828305,179.965019 C60.6828305,179.965019 51.8632267,198.923733 36.8236188,206.300817 C36.8236188,206.300817 46.4270215,205.933176 49.3401407,204.996344 C49.3401407,204.996344 48.9389103,206.446381 47.0503282,208.906031 C45.2195979,211.300364 41.9798958,214.629663 36.3160157,218.459103 C38.5685044,218.740899 50.9842522,221.185619 61.6009949,217.38044 L63.1163394,216.80565 L62.4426456,217.858187 C60.3693109,220.293576 54.6326495,223.264565 47.2089542,227.403794 C59.2384011,228.094287 65.4621376,225.188616 70.1388043,222.340796 C71.5197834,221.491676 72.777594,220.642555 73.999947,219.90354 C74.029806,221.07738 74.0577988,222.687909 74.0801931,224.62689 C74.2089601,231.983446 74.3451918,244.335816 74.4739587,257.720194 C74.5056839,261.40407 74.5187472,270.352494 74.5392753,277.317148 C37.3200247,250.972019 13.0203927,207.582896 13.0203927,158.507465 C13.0203927,78.1582737 78.1596797,13.0260679 158.499067,13.0204693 C238.85525,13.0260679 303.974009,78.1582737 303.979607,158.507465 C303.974009,206.045148 281.182256,248.245502 245.928102,274.788448 M158.499067,0 C70.9692579,0.00746479537 0,70.9696757 0,158.507465 C0,246.056451 70.9692579,316.992535 158.499067,317 C246.047538,317 316.992535,246.056451 317,158.507465 C316.992535,70.9696757 246.047538,0.00746479537 158.499067,0" id="Fill-9" fill="#608946"></path>
            <path d="M245.928102,274.788448 C245.957961,266.183406 245.978489,254.306916 246.0662,250.111701 C246.31067,238.744684 246.573803,229.342774 246.756689,226.076926 C251.149695,227.881541 259.592329,229.995944 264.2522,227.972984 C259.435569,224.901221 254.228905,219.330617 252.758349,214.523289 C259.060466,217.089313 274.038489,213.429697 276.212598,208.818319 L274.157925,208.075572 C271.660966,207.080888 269.481259,205.750288 267.549754,204.171484 C258.676031,196.831724 255.66587,183.913896 255.550166,172.800682 C259.351591,174.446669 268.596686,177.527763 276.059571,171.746279 C270.169882,168.235959 265.511877,163.381976 261.947458,157.802042 C257.438748,150.751542 254.654396,142.573859 253.346198,134.536141 C257.595508,137.542587 264.170088,137.270122 269.164007,134.235683 C260.682183,128.971136 250.864169,121.164826 249.240585,110.665591 C253.435775,112.761333 256.712801,113.216685 259.941306,111.10788 C251.500539,105.7127 245.997151,97.5406148 242.666005,88.6612408 C241.544426,85.6902522 240.672917,82.6427495 240.012286,79.5933806 C240.012286,79.5933806 234.833615,97.5275515 220.519954,111.262775 C222.82283,113.056192 230.769058,111.326226 231.993277,111.04443 L232.157502,111.003373 C231.04712,115.648342 228.647202,119.974191 225.739682,124.130216 C221.790828,129.790397 216.880888,135.109064 212.905908,140.373611 C214.753434,140.450125 216.494587,140.330688 218.116304,140.099279 C225.881512,139.056074 230.895959,135.487902 230.895959,136.723326 C227.954846,148.439322 220.758826,163.245744 206.894917,172.651386 C206.894917,172.651386 221.606075,173.616211 226.245418,170.098426 C223.571171,185.153052 213.445236,199.575036 201.333677,207.172332 C205.041792,209.340855 210.802714,210.430715 215.552162,209.10758 C217.384758,208.599974 220.310941,208.144622 221.690054,207.321628 C220.189639,211.524308 214.753434,214.144451 211.18155,215.693396 C218.493274,218.007482 222.501846,215.284698 223.748459,214.683782 C222.727654,220.082696 220.137386,222.954776 213.491891,226.683441 C213.491891,226.683441 224.474406,229.598443 232.245212,222.484493 L232.54007,222.924916 L232.532605,224.130481 L232.284402,253.663078 L232.24148,279.366234 C211.913096,279.030318 170.584499,278.673874 86.5687222,278.627219 L86.5388632,260.569879 L86.6191093,231.916262 L86.6191093,224.137946 C86.6191093,224.137946 98.0980308,231.292952 107.074394,227.976717 C102.797092,227.04735 99.4360875,223.785234 95.9089924,220.672414 L95.9089924,220.213329 C99.8709093,221.142697 105.107432,222.290409 109.970718,222.129916 C114.886257,221.969423 119.441621,220.511921 122.867942,218.048539 C120.10785,216.327903 114.671645,214.377726 112.518064,211.884484 C118.704477,212.489132 123.332623,211.046561 125.92849,208.247263 C111.930215,204.740675 99.4360875,191.003585 96.8252907,178.56537 C108.983505,182.950937 114.748159,178.423539 114.748159,178.423539 C109.87181,175.486142 95.7596974,162.958349 92.2251376,146.569391 C95.3939246,148.164991 99.9156978,149.529182 104.390816,148.976787 C106.410031,148.72485 108.427381,148.079146 110.301033,146.881046 C105.101834,142.368577 94.8583287,134.302866 89.0152945,113.003938 C93.3933712,114.620067 95.7596974,114.403588 98.3630295,112.378762 C86.3391811,104.770269 77.8274983,80.3809165 77.8274983,80.3809165 C76.860813,83.8856379 75.9837047,87.228 74.9181114,90.4359959 C72.1206958,98.8712146 67.9441674,106.255763 56.6854561,112.541121 C63.9729197,117.893379 66.8057928,116.129822 69.7095811,115.340419 C66.628505,130.130045 49.3401407,143.609599 49.3401407,143.609599 C54.5468048,145.473932 61.7484237,145.016713 66.4922733,142.840726 C65.0665058,150.647035 62.7001796,159.466691 57.8163659,166.002119 C54.826733,170.008848 50.892809,173.157126 45.6637506,174.702338 C48.9687693,181.164985 56.5436258,181.984246 60.3693109,179.67016 L60.6828305,179.965019 C60.6828305,179.965019 51.8632267,198.923733 36.8236188,206.300817 C36.8236188,206.300817 46.4270215,205.933176 49.3401407,204.996344 C49.3401407,204.996344 48.9389103,206.446381 47.0503282,208.906031 C45.2195979,211.300364 41.9798958,214.629663 36.3160157,218.459103 C38.5685044,218.740899 50.9842522,221.185619 61.6009949,217.38044 L63.1163394,216.80565 L62.4426456,217.858187 C60.3693109,220.293576 54.6326495,223.264565 47.2089542,227.403794 C59.2384011,228.094287 65.4621376,225.188616 70.1388043,222.340796 C71.5197834,221.491676 72.777594,220.642555 73.999947,219.90354 C74.029806,221.07738 74.0577988,222.687909 74.0801931,224.62689 C74.2089601,231.983446 74.3451918,244.335816 74.4739587,257.720194 C74.5056839,261.40407 74.5187472,270.352494 74.5392753,277.317148 C37.3200247,250.972019 13.0203927,207.582896 13.0203927,158.507465 C13.0203927,78.1582737 78.1596797,13.0260679 158.499067,13.0204693 C238.85525,13.0260679 303.974009,78.1582737 303.979607,158.507465 C303.974009,206.045148 281.182256,248.245502 245.928102,274.788448 Z M158.499067,0 C70.9692579,0.00746479537 0,70.9696757 0,158.507465 C0,246.056451 70.9692579,316.992535 158.499067,317 C246.047538,317 316.992535,246.056451 317,158.507465 C316.992535,70.9696757 246.047538,0.00746479537 158.499067,0 Z" id="Stroke-11" stroke="#025946" stroke-width="0.856"></path>
        </g>
    </g>
</svg>
